PathFileType	4	(X/Y/Z)	s08c0103.trc
DataRate	CameraRate	NumFrames	NumMarkers	Units	OrigDataRate	OrigDataStartFrame	OrigNumFrames
200	200	7	50	mm	200	500	2000
Frame#	Time	racr			lacr			c7			jug			rlel			rdr			llel			ldr			s2			lic			ric			lasi			rasi			rpsi			lpsi			rgt			lgt			rth1			rth2			rth3			rth4			rlfc			rmfc			rsh1			rsh2			rsh3			rsh4			rlmal			rmmal			rcal			rtoe			rmt5			lth1			lth2			lth4			lth3			llfc			lmfc			llmal			lmmal			lcal			lmt5			lsh1			lsh2			lsh3			lsh4			ltoe			SBIKE			LBIKE			RBIKE			
		X1	Y1	Z1	X2	Y2	Z2	X3	Y3	Z3	X4	Y4	Z4	X5	Y5	Z5	X6	Y6	Z6	X7	Y7	Z7	X8	Y8	Z8	X9	Y9	Z9	X10	Y10	Z10	X11	Y11	Z11	X12	Y12	Z12	X13	Y13	Z13	X14	Y14	Z14	X15	Y15	Z15	X16	Y16	Z16	X17	Y17	Z17	X18	Y18	Z18	X19	Y19	Z19	X20	Y20	Z20	X21	Y21	Z21	X22	Y22	Z22	X23	Y23	Z23	X24	Y24	Z24	X25	Y25	Z25	X26	Y26	Z26	X27	Y27	Z27	X28	Y28	Z28	X29	Y29	Z29	X30	Y30	Z30	X31	Y31	Z31	X32	Y32	Z32	X33	Y33	Z33	X34	Y34	Z34	X35	Y35	Z35	X36	Y36	Z36	X37	Y37	Z37	X38	Y38	Z38	X39	Y39	Z39	X40	Y40	Z40	X41	Y41	Z41	X42	Y42	Z42	X43	Y43	Z43	X44	Y44	Z44	X45	Y45	Z45	X46	Y46	Z46	X47	Y47	Z47	X48	Y48	Z48	X49	Y49	Z49	X50	Y50	Z50	
500	2.5000	571.757975	1354.369139	-62.078858	601.053096	1337.261750	-363.961545	551.326213	1408.217946	-215.495921	518.701384	1248.017010	-205.404599	574.860412	1090.190518	37.457439	796.243412	908.562271	-58.593354	631.096258	1097.149674	-507.263723	809.726270	888.903567	-428.298569	-1.951651	1205.436259	-270.990044	174.604878	1187.498915	-395.376248	138.258430	1221.621074	-86.262580	186.438641	1139.664458	-353.200657	179.572896	1165.686014	-105.903378	25.103692	1251.095162	-220.671975	34.430175	1246.686669	-314.371148	72.617532	1118.155186	-56.164862	122.060909	1075.568572	-431.724181	205.454209	999.578721	-41.055849	286.665824	963.655153	-37.516049	338.457341	893.920440	-44.611367	309.954373	992.204667	-42.622513	430.288655	811.263909	-55.835839	419.433431	799.876632	-168.338987	380.001288	688.901454	-30.071923	387.496779	600.723289	-47.823548	349.760335	523.291451	-55.227481	417.104386	599.411035	-75.363653	320.216863	407.310830	-64.243026	334.900045	430.122273	-152.647570	242.358221	368.630407	-110.436855	540.062616	394.572513	-102.541339	453.849330	350.908049	-38.255016	210.787234	980.096117	-428.051850	282.271993	930.769280	-417.492046	306.430807	952.120840	-400.689806	321.574844	850.781108	-418.628857	370.071482	734.229919	-401.528403	359.213824	707.632912	-294.308711	90.319680	423.441307	-404.052366	124.260200	421.268388	-319.216087	31.572383	447.444676	-361.021903	138.476843	260.716906	-418.289756	290.396324	633.027566	-425.790261	249.172134	559.684766	-407.506019	176.610750	510.038529	-410.312474	266.413921	547.666391	-372.416112	218.017569	226.769653	-349.456682	-180.977070	922.136605	-230.033570	10.679054	79.977753	-425.404481	9.308724	80.004694	-27.412786	
501	2.5050	571.901077	1354.722719	-63.143583	599.311812	1337.348026	-366.328753	549.789169	1408.868327	-216.803412	517.993068	1248.472144	-206.688102	575.803199	1090.804553	37.133687	796.459843	908.641646	-58.076429	630.176616	1096.948563	-509.199808	809.496754	888.833724	-428.674205	-2.661301	1202.706017	-268.581946	173.031866	1186.465634	-394.219837	138.980825	1218.018630	-84.477642	185.412077	1138.657586	-352.178853	180.627339	1162.835779	-105.252203	24.145778	1247.922902	-217.222159	33.200232	1244.425695	-311.881433	72.695776	1113.455357	-55.060750	121.757978	1074.832426	-431.094407	204.998525	993.600723	-40.655595	285.840273	956.895836	-36.968990	337.268103	886.937086	-44.582329	309.390700	985.181146	-41.948948	428.298481	803.383345	-55.945955	417.624618	792.244233	-168.923900	379.445814	680.522458	-29.500205	387.861643	592.387265	-47.570100	351.158315	514.450427	-54.818042	417.533909	591.475478	-75.053872	322.554955	398.155153	-63.726815	337.091168	420.994191	-152.114975	244.467821	360.055167	-109.968240	542.484758	383.563241	-102.781683	456.005656	340.661542	-38.346543	211.820995	980.793711	-428.181016	284.359162	932.929997	-417.622819	308.010447	954.770850	-400.660487	325.491588	853.928132	-418.948902	375.422447	738.593451	-401.986303	364.562633	711.649402	-295.636920	90.001402	433.348092	-404.170810	124.171823	430.532895	-319.432402	31.135250	457.807879	-361.202922	136.922942	270.459227	-418.327251	294.224038	638.870943	-426.008905	251.503471	566.237620	-407.724020	177.923757	518.180447	-410.388858	268.619767	553.809549	-372.715467	216.285865	236.162931	-349.511290	-180.959028	921.999537	-230.272409	10.720980	79.818564	-425.445588	9.302948	79.994850	-27.416961	
502	2.5100	572.154855	1355.238887	-64.365138	597.423621	1337.621754	-368.888658	548.262350	1409.676924	-218.373608	517.895890	1249.275453	-208.201096	577.252079	1092.155550	37.637010	796.818839	908.051826	-58.096693	629.232294	1096.814123	-510.744522	809.368607	888.784577	-428.885872	-3.558080	1200.071804	-265.463615	171.197048	1185.564323	-392.704304	139.765776	1214.538625	-82.568032	184.378328	1137.732549	-350.995434	181.668350	1160.079435	-104.583040	23.756201	1244.895759	-214.521738	31.984019	1242.165951	-308.924053	73.001183	1108.694400	-53.688562	121.133294	1074.324705	-430.320779	204.664153	987.644698	-40.169711	285.044941	950.297297	-36.047316	336.285521	879.694060	-44.331536	308.919909	977.976578	-41.456344	426.065667	795.182689	-56.121359	415.353803	783.994974	-168.775098	378.498014	671.897650	-29.203625	387.899279	583.933927	-46.866375	352.159519	505.465358	-54.362193	417.437350	583.266250	-74.875042	324.377131	388.706960	-63.149021	338.606813	411.850086	-151.559128	245.934571	351.291993	-109.508355	544.315215	372.380010	-103.023149	457.542193	330.187330	-38.389219	212.558788	981.727633	-428.154808	286.155097	935.563571	-417.852400	309.324580	957.802827	-400.847853	329.024422	857.392094	-419.341123	380.518795	743.339089	-402.433164	369.809861	716.152340	-296.802196	89.978954	443.285555	-404.160003	124.218899	440.088983	-319.366657	30.957036	468.186696	-361.187104	135.915513	280.408068	-418.355885	298.145423	645.040802	-426.312334	253.947712	573.170991	-407.845738	179.431119	526.595651	-410.422185	271.028274	560.629568	-373.242748	215.229442	245.742398	-349.552317	-180.877848	921.966038	-230.278947	10.719461	79.922411	-425.377160	9.366172	79.941506	-27.426552	
503	2.5150	572.471311	1356.040108	-65.817525	595.380848	1338.043949	-371.367101	546.705160	1410.751228	-220.042305	517.903769	1250.212066	-209.946977	579.289587	1093.497205	38.240901	795.852464	906.822368	-59.437470	628.240529	1096.570539	-511.762122	809.343044	888.795269	-429.001222	-4.840839	1197.511574	-260.820142	169.250023	1184.939982	-391.158587	140.708540	1211.054854	-80.609462	183.175390	1137.152096	-349.752496	182.689448	1157.437474	-103.897900	23.175093	1242.303562	-211.011621	30.613023	1239.862021	-305.515151	73.549853	1103.927713	-52.346568	120.182610	1074.042653	-429.381059	204.406807	981.718944	-39.637472	284.337842	943.389076	-35.699762	334.003649	871.824188	-44.463535	308.488507	970.798759	-41.016212	423.591176	786.786506	-56.355061	412.554388	775.182593	-168.619907	377.031582	662.909877	-28.788966	387.417144	575.203141	-46.595820	352.491615	496.275786	-54.101315	416.985649	574.791783	-74.755832	325.512129	379.429717	-62.541366	340.055056	403.187227	-150.449459	246.943491	342.600569	-108.880842	545.498374	361.203177	-103.075498	458.506590	319.614368	-38.376916	212.977049	982.958397	-428.140545	287.689507	938.302295	-417.819314	310.310156	961.166069	-401.132740	332.382833	861.429170	-420.185163	385.416127	748.501682	-402.939151	374.948954	721.116610	-297.823969	90.209316	453.382837	-403.990004	115.824646	447.263147	-324.463490	30.829737	478.537205	-361.088040	135.578030	290.608941	-418.316259	301.918909	651.443368	-426.353941	256.467264	580.518811	-408.128008	180.975372	535.295031	-410.292789	273.246878	567.376031	-373.164520	214.781791	255.685281	-349.657648	-180.798762	921.958893	-229.952965	10.752217	79.933678	-425.378245	9.383078	79.921989	-27.411222	
504	2.5200	572.884019	1357.062580	-67.495652	593.134545	1338.643432	-373.902483	545.106368	1411.955550	-221.942455	517.684441	1251.611890	-211.823077	582.094816	1095.257641	38.481887	795.817892	905.903711	-60.147225	627.281829	1096.234447	-512.248345	809.722851	888.725594	-429.316447	-5.506419	1195.912830	-258.081902	167.129546	1184.531848	-389.516972	141.897204	1207.689474	-78.544173	181.992403	1136.939464	-348.382239	183.684139	1154.930389	-103.198762	22.129528	1239.183645	-205.947691	27.720001	1238.188123	-299.848128	74.429547	1099.127030	-51.058890	119.017538	1074.072279	-428.312821	204.225171	975.954433	-39.052410	283.559695	936.130312	-36.178589	331.770800	864.138784	-44.422058	308.227019	963.545190	-40.529933	420.812679	778.303718	-56.588243	409.285639	766.074707	-168.974559	375.296084	653.844454	-28.687054	386.447729	566.131812	-46.530894	352.307179	487.003996	-53.763057	415.857933	566.057262	-74.704460	326.092486	370.084180	-61.808733	340.783050	394.861007	-149.417598	247.326790	333.812669	-108.266132	546.117591	349.997844	-103.154639	458.835726	309.127337	-38.411966	213.098662	984.475815	-427.997605	288.884880	941.529759	-417.999908	311.074227	964.906591	-401.453763	335.259887	865.589572	-420.449307	390.091543	753.965711	-403.486136	379.973448	726.517339	-298.721610	90.614819	463.479605	-403.675462	116.546154	457.101791	-324.324690	30.932934	488.781558	-360.917092	135.739322	300.920090	-418.266701	305.603411	658.017482	-426.056373	258.875007	588.147098	-408.214761	182.614507	544.242074	-410.165688	275.459343	574.449789	-373.013298	214.954391	265.970996	-349.563178	-186.137857	918.762754	-233.090591	10.779933	79.898283	-425.316387	9.510927	79.924314	-27.286000	
505	2.5250	573.425875	1358.469059	-69.472565	590.828066	1339.407070	-376.581539	543.476505	1413.549429	-224.149842	517.622257	1252.720322	-213.529382	586.498504	1097.996142	39.629433	797.125423	905.326928	-59.797433	626.382998	1095.798001	-512.269606	809.805462	888.866387	-429.217349	-6.733516	1194.174269	-254.416432	164.668498	1184.594894	-387.798956	143.215550	1204.550176	-76.462469	180.635004	1137.078138	-347.060124	184.645958	1152.578672	-102.487621	24.976810	1235.565456	-203.913774	26.142585	1237.418117	-296.347423	75.584314	1094.442232	-49.703939	117.622487	1074.417977	-427.162645	204.023941	970.288547	-38.491600	282.759554	929.288629	-35.674249	330.078517	856.431951	-44.194558	307.811362	956.369495	-40.114702	417.671225	769.612827	-56.872527	407.553578	757.995031	-167.383797	373.495125	644.603624	-28.661775	385.019971	557.119800	-46.397240	351.591748	477.608777	-53.469724	414.275103	557.307676	-74.713847	326.100833	360.651630	-61.185952	340.819485	386.873030	-148.461295	247.168242	325.135574	-107.550964	546.059492	338.773294	-103.360803	458.658314	298.643125	-38.367884	212.988269	986.346817	-427.659423	289.750238	945.098726	-418.132406	311.578883	969.012622	-401.949702	337.738875	870.190165	-420.775046	394.502827	759.885418	-403.832260	384.876760	732.329475	-299.514460	91.179875	473.646824	-403.265588	117.363498	466.869770	-324.133630	31.361809	498.916448	-360.574754	136.509835	311.351063	-418.172959	309.069438	665.428579	-426.488526	261.313813	596.163405	-408.407719	184.522368	553.903180	-410.721163	277.875211	582.049278	-373.363000	215.715425	276.563855	-349.618362	-186.455881	918.714260	-233.141294	10.826992	79.954962	-425.337772	9.604683	79.826273	-27.265034	
506	2.5300	574.051232	1360.212891	-71.657821	588.511917	1340.281817	-379.366205	542.034090	1415.819142	-226.894640	517.400686	1254.380438	-215.540506	589.811146	1100.676038	39.080624	797.201446	904.331681	-60.140536	625.611708	1095.358838	-511.828234	809.573939	889.029257	-428.762834	-7.543788	1192.727575	-250.798028	162.169744	1185.064943	-386.078401	144.788548	1201.567242	-74.288340	179.344911	1137.588503	-345.661910	185.568410	1150.403058	-101.766467	24.836189	1233.257623	-200.053523	25.049272	1237.146288	-294.571870	76.970074	1089.929271	-48.353744	116.088163	1075.194428	-425.845806	203.853874	964.835497	-37.922256	281.850566	922.631078	-34.984721	327.648334	848.867279	-44.323490	307.345871	949.111522	-39.722996	414.118214	760.826390	-57.230048	402.275653	747.623541	-167.714170	370.714670	635.560797	-28.799192	382.794008	548.118516	-46.008725	350.312619	468.325596	-53.249122	412.107118	548.682841	-74.988298	325.541317	351.349357	-60.505205	340.193231	379.224901	-147.578346	246.400530	316.602367	-106.871175	545.521483	327.491827	-103.532359	457.858007	288.078711	-38.378435	212.757899	988.620979	-427.162745	290.393640	948.985404	-418.277583	311.860342	973.482664	-402.500480	340.023460	875.026326	-421.041929	398.517811	766.175121	-404.186071	389.652455	738.528084	-300.221951	92.072955	483.772198	-402.658119	118.529742	477.032878	-323.823711	32.058177	509.113685	-360.282920	137.790963	321.842010	-418.140441	313.334634	674.666919	-429.202382	263.582214	604.219064	-408.338404	185.845120	562.826180	-409.567025	280.195141	589.867902	-373.585898	217.198472	287.165632	-349.567618	-186.722577	918.646911	-233.043698	10.870775	79.904859	-425.256118	9.608753	79.612456	-27.400608	
